<svg xmlns="http://www.w3.org/2000/svg" viewBox="0 0 1200 900" role="img" aria-labelledby="title desc">
  <title id="title">Before fence condition</title>
  <desc id="desc">An aging vertical wood fence with gaps, discoloration, and a sagging gate.</desc>
  <defs>
    <linearGradient id="sky" x1="0" x2="0" y1="0" y2="1">
      <stop offset="0%" stop-color="#ced8dd" />
      <stop offset="100%" stop-color="#e8efef" />
    </linearGradient>
    <linearGradient id="ground" x1="0" x2="0" y1="0" y2="1">
      <stop offset="0%" stop-color="#afb39d" />
      <stop offset="100%" stop-color="#8f947f" />
    </linearGradient>
  </defs>
  <rect width="1200" height="900" fill="url(#sky)" />
  <rect y="620" width="1200" height="280" fill="url(#ground)" />
  <rect x="130" y="290" width="940" height="360" rx="8" fill="#9a8f7d" stroke="#6f6759" stroke-width="5" />
  <g fill="#8e806b" stroke="#675e50" stroke-width="3" opacity="0.95">
    <rect x="150" y="260" width="42" height="425" />
    <rect x="208" y="250" width="42" height="430" />
    <rect x="266" y="270" width="42" height="405" />
    <rect x="324" y="245" width="42" height="438" />
    <rect x="382" y="268" width="42" height="410" />
    <rect x="440" y="255" width="42" height="420" />
    <rect x="498" y="270" width="42" height="402" />
    <rect x="556" y="248" width="42" height="432" />
    <rect x="614" y="262" width="42" height="418" />
    <rect x="672" y="280" width="42" height="392" />
    <rect x="730" y="252" width="42" height="425" />
    <rect x="788" y="275" width="42" height="401" />
    <rect x="846" y="258" width="42" height="420" />
    <rect x="904" y="248" width="42" height="430" />
  </g>
  <rect x="865" y="310" width="185" height="335" rx="6" fill="#897d69" stroke="#5d5548" stroke-width="8" transform="rotate(-4 865 310)" />
  <line x1="865" y1="310" x2="1050" y2="645" stroke="#5d5548" stroke-width="8" transform="rotate(-4 865 310)" />
  <line x1="1050" y1="310" x2="865" y2="645" stroke="#5d5548" stroke-width="8" transform="rotate(-4 865 310)" />
  <g fill="#7d8c67">
    <circle cx="130" cy="640" r="70" />
    <circle cx="1080" cy="645" r="75" />
  </g>
  <rect x="0" y="0" width="1200" height="900" fill="#253034" opacity="0.08" />
  <text x="78" y="118" font-size="86" font-family="Arial, sans-serif" font-weight="700" fill="#2b363b" opacity="0.8">BEFORE</text>
</svg>
